<svg viewBox="0 0 40 40" fill="none" xmlns="http://www.w3.org/2000/svg">
  <clipPath id="c"><circle cx="20" cy="20" r="19"/></clipPath>
  <circle cx="20" cy="20" r="19" stroke="#cbd5e1" stroke-width="1.5"/>
  <g clip-path="url(#c)">
    <rect x="0" y="0" width="40" height="13.3" fill="#FF9933"/>
    <rect x="0" y="13.3" width="40" height="13.4" fill="#fff"/>
    <rect x="0" y="26.7" width="40" height="13.3" fill="#138808"/>
    <circle cx="20" cy="20" r="3.2" fill="none" stroke="#000080" stroke-width="0.8"/>
    <g transform="translate(20,20)">
      <line x1="0" y1="-3.2" x2="0" y2="-1.8" stroke="#000080" stroke-width="0.5" transform="rotate(0)"/>
      <line x1="0" y1="-3.2" x2="0" y2="-1.8" stroke="#000080" stroke-width="0.5" transform="rotate(15)"/>
      <line x1="0" y1="-3.2" x2="0" y2="-1.8" stroke="#000080" stroke-width="0.5" transform="rotate(30)"/>
      <line x1="0" y1="-3.2" x2="0" y2="-1.8" stroke="#000080" stroke-width="0.5" transform="rotate(45)"/>
      <line x1="0" y1="-3.2" x2="0" y2="-1.8" stroke="#000080" stroke-width="0.5" transform="rotate(60)"/>
      <line x1="0" y1="-3.2" x2="0" y2="-1.8" stroke="#000080" stroke-width="0.5" transform="rotate(75)"/>
      <line x1="0" y1="-3.2" x2="0" y2="-1.8" stroke="#000080" stroke-width="0.5" transform="rotate(90)"/>
      <line x1="0" y1="-3.2" x2="0" y2="-1.8" stroke="#000080" stroke-width="0.5" transform="rotate(105)"/>
      <line x1="0" y1="-3.2" x2="0" y2="-1.8" stroke="#000080" stroke-width="0.5" transform="rotate(120)"/>
      <line x1="0" y1="-3.2" x2="0" y2="-1.8" stroke="#000080" stroke-width="0.5" transform="rotate(135)"/>
      <line x1="0" y1="-3.2" x2="0" y2="-1.8" stroke="#000080" stroke-width="0.5" transform="rotate(150)"/>
      <line x1="0" y1="-3.2" x2="0" y2="-1.8" stroke="#000080" stroke-width="0.5" transform="rotate(165)"/>
      <line x1="0" y1="-3.2" x2="0" y2="-1.8" stroke="#000080" stroke-width="0.5" transform="rotate(180)"/>
      <line x1="0" y1="-3.2" x2="0" y2="-1.8" stroke="#000080" stroke-width="0.5" transform="rotate(195)"/>
      <line x1="0" y1="-3.2" x2="0" y2="-1.8" stroke="#000080" stroke-width="0.5" transform="rotate(210)"/>
      <line x1="0" y1="-3.2" x2="0" y2="-1.8" stroke="#000080" stroke-width="0.5" transform="rotate(225)"/>
      <line x1="0" y1="-3.2" x2="0" y2="-1.8" stroke="#000080" stroke-width="0.5" transform="rotate(240)"/>
      <line x1="0" y1="-3.2" x2="0" y2="-1.8" stroke="#000080" stroke-width="0.5" transform="rotate(255)"/>
      <line x1="0" y1="-3.2" x2="0" y2="-1.8" stroke="#000080" stroke-width="0.5" transform="rotate(270)"/>
      <line x1="0" y1="-3.2" x2="0" y2="-1.8" stroke="#000080" stroke-width="0.5" transform="rotate(285)"/>
      <line x1="0" y1="-3.2" x2="0" y2="-1.8" stroke="#000080" stroke-width="0.5" transform="rotate(300)"/>
      <line x1="0" y1="-3.2" x2="0" y2="-1.8" stroke="#000080" stroke-width="0.5" transform="rotate(315)"/>
      <line x1="0" y1="-3.2" x2="0" y2="-1.8" stroke="#000080" stroke-width="0.5" transform="rotate(330)"/>
      <line x1="0" y1="-3.2" x2="0" y2="-1.8" stroke="#000080" stroke-width="0.5" transform="rotate(345)"/>
      <circle r="1" fill="#000080"/>
    </g>
  </g>
</svg>
